<svg xmlns="http://www.w3.org/2000/svg" width="88" height="26" viewBox="0 0 88 26" fill="none"><path d="M0 12.5714C0 19.4858 5.72854 25.1429 12.7303 25.1429C19.7321 25.1429 25.4606 19.4858 25.4606 12.5714C25.4606 5.65704 19.7321 0 12.7303 0C5.72854 0 0 5.65704 0 12.5714Z" fill="#1ECCB0"></path><path d="M11.0597 19.722C10.5823 18.9362 9.94566 18.2294 9.14989 17.7579C8.35412 17.2864 7.55835 16.894 6.60343 16.6577H6.52435C6.44527 16.6577 6.3652 16.6577 6.28611 16.7358C6.20703 16.7358 6.20703 16.8139 6.20703 16.893C6.20703 16.972 6.20703 17.0501 6.28611 17.0501C7.32012 18.5427 8.91165 19.6429 10.6623 20.1144H10.7414C10.8205 20.1144 10.8205 20.1144 10.9006 20.1144C10.9006 20.1144 10.9797 20.1144 10.9797 20.0363L11.0587 19.9582C11.0587 19.9582 11.0587 19.8801 11.0587 19.8011C11.0597 19.8001 11.0597 19.722 11.0597 19.722Z" fill="white"></path><path d="M20.4479 10.45V10.3719C20.0505 8.95744 19.2547 7.70011 18.1407 6.7571C17.0266 5.8141 15.7534 5.10733 14.321 4.87109H14.2419C14.1628 4.87109 14.0827 4.87109 14.0037 4.94919C13.9246 5.02729 13.9246 5.10636 13.9246 5.18445V5.26255C14.6403 9.58416 14.1628 13.9839 12.5723 18.0702C12.5723 18.1483 12.4932 18.1483 12.4932 18.2274C12.4932 18.3065 12.4141 18.3055 12.334 18.3055C12.254 18.3055 12.2549 18.3055 12.1749 18.3055C12.1749 18.3055 12.0958 18.3055 12.0958 18.2274L12.0167 18.1493C12.0167 18.1493 12.0167 18.0712 12.0167 17.9921C12.0167 17.9921 11.9376 17.4425 11.9376 17.2063C11.4602 13.4343 10.3461 9.8204 8.51632 6.44179C8.51632 6.3637 8.43723 6.3637 8.43723 6.3637L8.35815 6.2856C8.35815 6.2856 8.27907 6.2856 8.199 6.2856C8.11893 6.2856 8.11991 6.2856 8.03984 6.3637C6.84669 7.14953 5.97085 8.2497 5.41431 9.50704C5.41431 9.58514 5.41431 9.66421 5.41431 9.7423C5.41431 9.8204 5.49339 9.89947 5.57346 9.89947C7.32415 10.9996 8.75653 12.4141 9.79053 14.2211C10.8245 15.9499 11.3821 17.9931 11.4611 19.9572C11.4611 20.0353 11.4611 20.1144 11.5402 20.1925C11.6193 20.2706 11.6994 20.2706 11.6994 20.2706C11.8585 20.2706 12.0968 20.3487 12.2559 20.3487C12.335 20.3487 12.4151 20.3487 12.4942 20.2706C12.5732 20.1925 12.5732 20.1925 12.5732 20.1134C12.9706 18.0702 13.8465 16.1061 15.1988 14.4563C16.5511 12.8066 18.2227 11.5492 20.2116 10.6843C20.2907 10.6843 20.2907 10.6062 20.3708 10.6062C20.3688 10.5281 20.4479 10.5281 20.4479 10.45Z" fill="white"></path><path d="M19.6529 16.4215C19.6529 16.3434 19.6529 16.2643 19.5738 16.1862C19.4947 16.1082 19.4147 16.1082 19.3356 16.1082H19.2565C16.7901 16.6578 14.562 17.9942 12.9704 19.8802C12.8914 19.9583 12.8914 20.0373 12.8914 20.1154C12.8914 20.1935 12.8914 20.2726 12.9704 20.3507C13.0495 20.4288 13.1296 20.4288 13.2087 20.4288C14.4819 20.3507 15.7551 19.9573 16.8692 19.3286C17.9833 18.6999 18.9382 17.7569 19.5748 16.6568C19.6529 16.4996 19.6529 16.4996 19.6529 16.4215Z" fill="white"></path><path d="M31.9378 17.3113C31.1969 17.3113 30.5763 17.1878 30.076 16.9408C29.5757 16.6842 29.1956 16.3184 28.9358 15.8433C28.676 15.3683 28.5461 14.7982 28.5461 14.133V13.9193H30.7976C30.7976 14.4228 30.8842 14.7887 31.0574 15.0167C31.2306 15.2447 31.5192 15.3588 31.9234 15.3588C32.1928 15.3588 32.4044 15.3017 32.5584 15.1877C32.7123 15.0737 32.823 14.9074 32.8903 14.6889C32.9577 14.4704 32.9914 14.1853 32.9914 13.8337V7.23487H35.4738V13.8337C35.4738 14.5939 35.3439 15.2352 35.0841 15.7578C34.8339 16.2709 34.4491 16.6605 33.9295 16.9265C33.4099 17.1831 32.746 17.3113 31.9378 17.3113Z" fill="black"></path><path d="M36.8531 9.70054H39.1046V17.0833H36.8531V9.70054ZM37.9788 8.80264C37.7287 8.80264 37.5074 8.75513 37.3149 8.66011C37.1225 8.5556 36.9734 8.41782 36.8675 8.24679C36.7713 8.06626 36.7232 7.86673 36.7232 7.64819C36.7232 7.42015 36.7713 7.22062 36.8675 7.04959C36.9734 6.87856 37.1225 6.74079 37.3149 6.63627C37.5074 6.53175 37.7335 6.47949 37.9933 6.47949C38.2434 6.47949 38.4647 6.53175 38.6572 6.63627C38.8496 6.74079 38.9939 6.87856 39.0901 7.04959C39.196 7.22062 39.2489 7.42015 39.2489 7.64819C39.2489 7.87623 39.196 8.07577 39.0901 8.24679C38.9843 8.41782 38.8352 8.5556 38.6427 8.66011C38.4599 8.75513 38.2386 8.80264 37.9788 8.80264Z" fill="black"></path><path d="M43.9052 17.2828C43.1162 17.2828 42.4331 17.1213 41.8558 16.7983C41.2785 16.4752 40.8359 16.0191 40.528 15.43C40.2297 14.8409 40.0806 14.1616 40.0806 13.3919C40.0806 12.6223 40.2297 11.9429 40.528 11.3538C40.8359 10.7647 41.2785 10.3134 41.8558 9.99984C42.4427 9.67679 43.1258 9.51526 43.9052 9.51526C44.6846 9.51526 45.3629 9.67679 45.9402 9.99984C46.5271 10.3229 46.9697 10.779 47.268 11.3681C47.5759 11.9477 47.7298 12.6223 47.7298 13.3919C47.7298 14.1711 47.5711 14.8552 47.2535 15.4443C46.9457 16.0239 46.5031 16.4752 45.9258 16.7983C45.3581 17.1213 44.6846 17.2828 43.9052 17.2828ZM43.9052 15.6153C44.242 15.6153 44.5258 15.5298 44.7567 15.3588C44.9973 15.1782 45.1753 14.9264 45.2907 14.6034C45.4062 14.2708 45.4639 13.867 45.4639 13.3919C45.4639 12.9453 45.4062 12.5558 45.2907 12.2232C45.1753 11.8907 45.0021 11.6341 44.7711 11.4536C44.5402 11.2636 44.2468 11.1685 43.8908 11.1685C43.5732 11.1685 43.2942 11.2541 43.0537 11.4251C42.8228 11.5961 42.6448 11.8479 42.5197 12.1805C42.4042 12.513 42.3465 12.9168 42.3465 13.3919C42.3465 13.8575 42.4042 14.2566 42.5197 14.5891C42.6448 14.9217 42.8228 15.1782 43.0537 15.3588C43.2846 15.5298 43.5684 15.6153 43.9052 15.6153Z" fill="black"></path><path d="M52.5604 17.3113C51.6752 17.3113 50.9055 17.1878 50.2512 16.9408C49.6066 16.6937 49.1111 16.3374 48.7647 15.8718C48.4183 15.3968 48.2451 14.8267 48.2451 14.1616H50.7131C50.7131 14.6176 50.8766 14.9597 51.2038 15.1877C51.5405 15.4158 52.0216 15.5298 52.647 15.5298C52.9934 15.5298 53.2965 15.4918 53.5563 15.4158C53.8257 15.3303 54.0326 15.202 54.1769 15.031C54.3308 14.8599 54.4078 14.6509 54.4078 14.4038C54.4078 14.1948 54.3501 14.019 54.2346 13.8765C54.1192 13.734 53.9412 13.6057 53.7006 13.4917C53.4697 13.3777 53.157 13.2637 52.7625 13.1496L51.0883 12.7078C50.511 12.5558 50.0396 12.3562 49.6739 12.1092C49.3083 11.8622 49.0341 11.5676 48.8513 11.2256C48.6685 10.874 48.5771 10.4749 48.5771 10.0283C48.5771 9.41074 48.7406 8.8739 49.0678 8.41782C49.4045 7.96175 49.8712 7.61494 50.4677 7.37739C51.0643 7.13035 51.757 7.00683 52.546 7.00683C53.3254 7.00683 54.0085 7.1161 54.5954 7.33464C55.192 7.55318 55.649 7.88098 55.9665 8.31806C56.2937 8.74563 56.4669 9.26822 56.4861 9.88582H54.1336C54.1143 9.63878 54.0374 9.4345 53.9027 9.27297C53.768 9.11144 53.5803 8.98792 53.3398 8.90241C53.1089 8.81689 52.8202 8.77413 52.4738 8.77413C52.1756 8.77413 51.911 8.81214 51.6801 8.88815C51.4588 8.95466 51.2856 9.06393 51.1605 9.21596C51.0354 9.36799 50.9729 9.55802 50.9729 9.78606C50.9729 9.97609 51.0113 10.1376 51.0883 10.2706C51.1749 10.3942 51.3192 10.5034 51.5213 10.5984C51.7234 10.6935 52.0072 10.7837 52.3728 10.8692L53.5707 11.1685C54.3405 11.3681 54.9611 11.5914 55.4325 11.8384C55.9136 12.0759 56.2744 12.38 56.515 12.7506C56.7555 13.1211 56.8758 13.582 56.8758 14.133C56.8758 14.7602 56.7074 15.316 56.3706 15.8006C56.0435 16.2757 55.5576 16.6462 54.9129 16.9123C54.2683 17.1783 53.4841 17.3113 52.5604 17.3113Z" fill="black"></path><path d="M59.9418 17.2828C59.4126 17.2828 58.9556 17.1926 58.5707 17.012C58.1858 16.822 57.8876 16.556 57.6759 16.2139C57.4738 15.8623 57.3728 15.4443 57.3728 14.9597C57.3728 14.4181 57.5123 13.9715 57.7913 13.62C58.08 13.2589 58.4985 12.9929 59.047 12.8218C59.5954 12.6508 60.2641 12.5653 61.0531 12.5653H62.2366V12.2517C62.2366 11.9382 62.1981 11.6864 62.1211 11.4963C62.0441 11.2968 61.919 11.1495 61.7459 11.0545C61.5727 10.95 61.3369 10.8977 61.0387 10.8977C60.6634 10.8977 60.3748 10.9738 60.1727 11.1258C59.9803 11.2683 59.8648 11.4726 59.8263 11.7386H57.6759C57.7336 11.2541 57.8924 10.8455 58.1522 10.5129C58.4216 10.1804 58.8016 9.92858 59.2923 9.75755C59.783 9.58652 60.394 9.50101 61.1253 9.50101C61.8854 9.50101 62.506 9.60553 62.9871 9.81456C63.4778 10.0236 63.8434 10.3419 64.0839 10.7695C64.3245 11.197 64.4447 11.7529 64.4447 12.437V17.0833H62.4386L62.3087 16.1854H62.2799C62.1548 16.3944 61.9864 16.5797 61.7747 16.7412C61.563 16.9028 61.3033 17.031 60.9954 17.1261C60.6875 17.2306 60.3363 17.2828 59.9418 17.2828ZM60.7789 15.8006C61.0579 15.8006 61.3081 15.7436 61.5294 15.6296C61.7603 15.506 61.9335 15.3303 62.0489 15.1022C62.174 14.8647 62.2366 14.5844 62.2366 14.2613V13.7197H61.4139C61.0387 13.7197 60.7211 13.7577 60.4614 13.8337C60.2112 13.9003 60.014 14.0143 59.8696 14.1758C59.7349 14.3278 59.6676 14.5321 59.6676 14.7887C59.6676 15.0167 59.7109 15.2067 59.7975 15.3588C59.8937 15.5108 60.0236 15.6248 60.1871 15.7008C60.3507 15.7673 60.548 15.8006 60.7789 15.8006Z" fill="black"></path><path d="M67.8278 17.2828C67.2986 17.2828 66.8416 17.1926 66.4567 17.012C66.0719 16.822 65.7736 16.556 65.5619 16.2139C65.3599 15.8623 65.2588 15.4443 65.2588 14.9597C65.2588 14.4181 65.3983 13.9715 65.6774 13.62C65.966 13.2589 66.3846 12.9929 66.933 12.8218C67.4814 12.6508 68.1502 12.5653 68.9391 12.5653H70.1226V12.2517C70.1226 11.9382 70.0841 11.6864 70.0071 11.4963C69.9302 11.2968 69.8051 11.1495 69.6319 11.0545C69.4587 10.95 69.223 10.8977 68.9247 10.8977C68.5494 10.8977 68.2608 10.9738 68.0587 11.1258C67.8663 11.2683 67.7509 11.4726 67.7124 11.7386H65.5619C65.6196 11.2541 65.7784 10.8455 66.0382 10.5129C66.3076 10.1804 66.6876 9.92858 67.1784 9.75755C67.6691 9.58652 68.28 9.50101 69.0113 9.50101C69.7714 9.50101 70.392 9.60553 70.8731 9.81456C71.3638 10.0236 71.7294 10.3419 71.97 10.7695C72.2105 11.197 72.3308 11.7529 72.3308 12.437V17.0833H70.3247L70.1948 16.1854H70.1659C70.0408 16.3944 69.8724 16.5797 69.6608 16.7412C69.4491 16.9028 69.1893 17.031 68.8814 17.1261C68.5735 17.2306 68.2223 17.2828 67.8278 17.2828ZM68.6649 15.8006C68.9439 15.8006 69.1941 15.7436 69.4154 15.6296C69.6463 15.506 69.8195 15.3303 69.935 15.1022C70.0601 14.8647 70.1226 14.5844 70.1226 14.2613V13.7197H69.2999C68.9247 13.7197 68.6072 13.7577 68.3474 13.8337C68.0972 13.9003 67.9 14.0143 67.7557 14.1758C67.621 14.3278 67.5536 14.5321 67.5536 14.7887C67.5536 15.0167 67.5969 15.2067 67.6835 15.3588C67.7797 15.5108 67.9096 15.6248 68.0732 15.7008C68.2367 15.7673 68.434 15.8006 68.6649 15.8006Z" fill="black"></path><path d="M72.7841 9.70054H75.1654L76.5798 14.8314H76.6087L78.0375 9.70054H80.3323L77.8787 17.0833H75.2232L72.7841 9.70054Z" fill="black"></path><path d="M80.8138 9.70054H83.0076V10.6982H83.0365C83.2674 10.3086 83.5753 10.0141 83.9601 9.81456C84.3546 9.61503 84.8069 9.51526 85.3168 9.51526C85.8845 9.51526 86.3559 9.61978 86.7312 9.82881C87.1161 10.0378 87.4047 10.3514 87.5971 10.7695C87.7992 11.178 87.9002 11.6816 87.9002 12.2802V17.0833H85.6488V12.8788C85.6488 12.3182 85.5429 11.9049 85.3312 11.6389C85.1292 11.3728 84.8165 11.2398 84.3931 11.2398C83.9601 11.2398 83.6282 11.3776 83.3973 11.6531C83.176 11.9192 83.0653 12.3277 83.0653 12.8788V17.0833H80.8138V9.70054Z" fill="black"></path></svg>